:SAMPLES-PER-SECOND 30
:FULLY-SPECIFIED
:DEGREES
296
root  53.2246 39.154 20.8622 -2.41402 -54.9695 0.697194
RightUpLeg  -19.6403 -31.8091 7.33951
RightLeg  18.0691 -8.75742 -2.35734
RightFoot  -3.66177 0.62715 -9.68695
RightToes  0.000482159 0.542163 -0.142577
Spine  26.6882 -3.81063 3.02608
Spine1  -5.18661 -4.13496 5.00239
HEad  -14.888 -8.43917 7.00861
LeftShoulder1  9.00632 -13.648 -45.7882
LeftArm  -21.0021 12.313 -19.4497
LeftForeArm  31.8573 -37.1743 -6.55875
LeftHand  -0.25398 0.0180481 5.50724
RightShoulder  4.88305 8.58774 34.4341
RightArm  -11.7261 -25.9473 36.9619
RightForeArm  9.50967 10.1601 5.79791
RightHand  -2.55007 7.92144 -22.3933
LeftUpLeg  20.9245 32.8849 19.8336
LeftLeg  15.8815 27.8137 2.88197
LeftFoot  -3.25101 1.51426 -21.2702
LeftToes  1.06245e-005 4.65855e-005 -8.18503e-006
297
root  52.1008 39.2201 21.3098 -3.14603 -58.3127 1.40104
RightUpLeg  -17.9542 -29.8698 6.91439
RightLeg  19.2717 -7.68808 -2.55269
RightFoot  -5.33177 0.510654 -10.3541
RightToes  0.000482159 0.542163 -0.142577
Spine  25.7961 -3.49497 2.84818
Spine1  -5.04014 -3.90147 5.25153
HEad  -12.1185 -8.63981 3.53099
LeftShoulder1  8.92827 -13.4879 -45.8198
LeftArm  -20.5229 13.6082 -19.0787
LeftForeArm  33.4597 -41.5381 -7.72637
LeftHand  -0.25398 0.0180481 5.50724
RightShoulder  4.79397 8.29687 34.6674
RightArm  -13.654 -24.2618 37.5198
RightForeArm  12.2471 8.59702 5.17373
RightHand  -2.47055 7.74203 -22.0014
LeftUpLeg  20.5249 40.8782 22.7583
LeftLeg  22.4677 18.8164 9.37773
LeftFoot  2.11889 1.57433 -13.6772
LeftToes  1.06245e-005 4.65855e-005 -8.18503e-006
298
root  51.0673 39.2893 21.7244 -3.51742 -61.3918 1.71337
RightUpLeg  -16.0609 -27.2953 6.35359
RightLeg  20.074 -7.32641 -2.57036
RightFoot  -7.04756 0.32493 -9.8682
RightToes  0.000482159 0.542163 -0.142577
Spine  24.8935 -3.56372 3.47346
Spine1  -4.80528 -3.72424 4.89535
HEad  -10.21 -8.60298 1.20566
LeftShoulder1  8.876 -13.4121 -45.7535
LeftArm  -19.6739 14.7786 -18.9115
LeftForeArm  35.6484 -45.382 -8.84679
LeftHand  -0.25398 0.0180481 5.50724
RightShoulder  4.67884 8.05477 34.5252
RightArm  -15.1165 -22.3849 38.7321
RightForeArm  12.3349 8.89528 4.84049
RightHand  -2.34013 7.2851 -21.6082
LeftUpLeg  14.0702 33.0145 17.5271
LeftLeg  30.7382 18.8163 11.9171
LeftFoot  6.68534 0.719066 -4.62285
LeftToes  1.06245e-005 4.65855e-005 -8.18503e-006
299
root  50.1321 39.3257 22.1224 -3.64472 -64.1627 1.25908
RightUpLeg  -13.5201 -23.9985 5.6124
RightLeg  20.5093 -7.98119 -2.37431
RightFoot  -8.64508 0.151602 -8.9091
RightToes  0.000482159 0.542163 -0.142577
Spine  24.4476 -3.92423 4.94815
Spine1  -4.32252 -3.5403 4.10444
HEad  -9.19164 -8.21913 0.41284
LeftShoulder1  8.88036 -13.4996 -45.5329
LeftArm  -18.6679 15.6254 -19.1663
LeftForeArm  38.2439 -48.3525 -9.76484
LeftHand  -0.25398 0.0180481 5.50724
RightShoulder  4.70874 8.15087 34.4487
RightArm  -14.4096 -20.4435 39.6276
RightForeArm  8.63966 11.0189 5.28228
RightHand  -2.42973 7.38098 -22.2279
LeftUpLeg  8.7192 26.7591 14.1234
LeftLeg  37.9145 11.05 9.38751
LeftFoot  7.71473 0.317759 -2.15867
LeftToes  1.06245e-005 4.65855e-005 -8.18503e-006
300
root  49.2111 39.3781 22.505 -4.27283 -66.9296 1.24094
RightUpLeg  -10.778 -19.7162 4.56363
RightLeg  20.625 -9.73324 -1.96269
RightFoot  -9.80359 0.0454192 -8.3171
RightToes  0.000482159 0.542163 -0.142577
Spine  24.0034 -4.04458 6.13244
Spine1  -3.62606 -3.20843 3.43939
HEad  -7.90687 -7.60108 -0.400492
LeftShoulder1  8.88983 -13.5895 -45.3346
LeftArm  -17.6155 16.1541 -19.8808
LeftForeArm  41.2195 -50.3378 -10.3566
LeftHand  -0.25398 0.0180481 5.50724
RightShoulder  4.76979 8.28493 34.5068
RightArm  -10.4133 -18.2013 39.8809
RightForeArm  4.05509 14.3532 5.76092
RightHand  -2.66223 8.06242 -23.105
LeftUpLeg  4.00908 21.6245 11.2785
LeftLeg  43.9873 4.25212 4.84929
LeftFoot  6.25409 0.655997 -4.49811
LeftToes  1.06245e-005 4.65855e-005 -8.18503e-006
301
root  48.2242 39.5003 22.8919 -5.82173 -70.1222 2.61897
RightUpLeg  -8.33159 -15.2342 3.47991
RightLeg  20.2271 -11.2206 -1.41924
RightFoot  -10.5946 -0.0199872 -7.86924
RightToes  0.000482159 0.542163 -0.142577
Spine  22.8759 -3.6671 6.65816
Spine1  -2.79442 -2.58921 2.86169
HEad  -6.2358 -6.86034 -1.67291
LeftShoulder1  8.86782 -13.555 -45.3129
LeftArm  -16.7875 16.6991 -20.9453
LeftForeArm  44.245 -51.6106 -10.6835
LeftHand  -0.25398 0.0180481 5.50724
RightShoulder  4.73448 8.20395 34.4849
RightArm  -4.71287 -15.5487 39.9523
RightForeArm  1.85728 18.2011 5.44066
RightHand  -2.7022 8.33528 -22.9878
LeftUpLeg  -0.504091 18.1091 8.44796
LeftLeg  48.4098 2.93721 4.03191
LeftFoot  4.96391 0.825316 -5.95553
LeftToes  1.06245e-005 4.65855e-005 -8.18503e-006
302
root  47.1715 39.6717 23.2758 -8.70596 -73.7444 5.44543
RightUpLeg  -5.67238 -11.8114 2.45238
RightLeg  19.0276 -10.9896 -0.67439
RightFoot  -11.2913 -0.0728074 -7.19818
RightToes  0.000482159 0.542163 -0.142577
Spine  21.5873 -3.02762 6.93199
Spine1  -2.0743 -1.77136 1.86452
HEad  -4.48415 -5.76643 -3.2349
LeftShoulder1  8.83102 -13.4687 -45.3558
LeftArm  -16.3508 17.6483 -22.1839
LeftForeArm  46.3721 -52.3031 -10.8338
LeftHand  -0.25398 0.0180481 5.50724
RightShoulder  4.66526 8.06546 34.3722
RightArm  -0.308357 -12.5605 40.1637
RightForeArm  2.42467 21.6881 4.87334
RightHand  -2.57254 8.0933 -22.3089
LeftUpLeg  -4.51407 15.832 5.94713
LeftLeg  50.7151 5.34069 7.39367
LeftFoot  4.13297 0.57266 -4.38156
LeftToes  1.06245e-005 4.65855e-005 -8.18503e-006
